<svg xmlns="http://www.w3.org/2000/svg" xmlns:xlink="http://www.w3.org/1999/xlink">
  <symbol id="globe" viewBox="0 0 18 18" fill="none">
    <path d="M1.5 9C1.5 13.1422 4.85775 16.5 9 16.5C13.1422 16.5 16.5 13.1422 16.5 9C16.5 4.85775 13.1422 1.5 9 1.5C4.85775 1.5 1.5 4.85775 1.5 9Z" stroke="white" stroke-width="1.125" stroke-linecap="round" stroke-linejoin="round"/>
    <path d="M9.75 1.53711C9.75 1.53711 12 4.49961 12 8.99961C12 13.4996 9.75 16.4621 9.75 16.4621M8.25 16.4621C8.25 16.4621 6 13.4996 6 8.99961C6 4.49961 8.25 1.53711 8.25 1.53711M1.9725 11.6246H16.0275M1.9725 6.37461H16.0275" stroke="white" stroke-width="1.125" stroke-linecap="round" stroke-linejoin="round"/>
  </symbol>
  
  <symbol id="wallet" viewBox="0 0 16 16" fill="none">
    <path d="M3.5 6.5H6.5" stroke="white" stroke-linecap="round" stroke-linejoin="round"/>
    <path d="M14.6248 7.25H12.6733C11.3345 7.25 10.25 8.25725 10.25 9.5C10.25 10.7427 11.3352 11.75 12.6725 11.75H14.6248C14.6878 11.75 14.7185 11.75 14.7448 11.7485C15.1498 11.7237 15.4722 11.4245 15.4985 11.0488C15.5 11.0248 15.5 10.9955 15.5 10.9377V8.06225C15.5 8.0045 15.5 7.97525 15.4985 7.95125C15.4715 7.5755 15.1498 7.27625 14.7448 7.2515C14.7185 7.25 14.6878 7.25 14.6248 7.25Z" stroke="white"/>
    <path d="M14.7238 7.25C14.6653 5.846 14.4778 4.985 13.871 4.379C12.9928 3.5 11.5783 3.5 8.75 3.5H6.5C3.67175 3.5 2.25725 3.5 1.379 4.379C0.5 5.25725 0.5 6.67175 0.5 9.5C0.5 12.3282 0.5 13.7427 1.379 14.621C2.25725 15.5 3.67175 15.5 6.5 15.5H8.75C11.5783 15.5 12.9928 15.5 13.871 14.621C14.4778 14.015 14.666 13.154 14.7238 11.75" stroke="white"/>
    <path d="M3.5 3.50039L6.30125 1.64264C6.6952 1.3864 7.15505 1.25 7.625 1.25C8.09495 1.25 8.5548 1.3864 8.94875 1.64264L11.75 3.50039" stroke="white" stroke-linecap="round"/>
    <path d="M12.4932 9.5H12.5014" stroke="white" stroke-linecap="round" stroke-linejoin="round"/>
  </symbol>

  <symbol id="coin" viewBox="0 0 20 20">
    <path fill-rule="evenodd" clip-rule="evenodd" d="M10.71 1.28917C12.6991 1.48808 14.5544 2.38167 15.95 3.81292C17.4704 5.35742 18.3693 7.40737 18.4753 9.57204C18.5814 11.7367 17.8871 13.8647 16.525 15.5504C15.2722 17.1077 13.5141 18.1776 11.5553 18.5748C9.59653 18.9721 7.5605 18.6716 5.8 17.7254C4.03572 16.7588 2.65841 15.2137 1.9 13.3504C1.1382 11.4775 1.0368 9.4011 1.6125 7.46292C2.18697 5.53228 3.40994 3.85897 5.075 2.72542C6.72606 1.59906 8.72123 1.09053 10.71 1.28917ZM11.3 17.3504C12.9785 17.01 14.4859 16.095 15.5625 14.7629C16.7283 13.3141 17.3214 11.4876 17.2292 9.6303C17.137 7.77299 16.366 6.0142 15.0625 4.68792C13.8686 3.46918 12.2843 2.70882 10.5866 2.53974C8.88895 2.37065 7.18584 2.80361 5.775 3.76292C4.71305 4.49466 3.8555 5.48542 3.28359 6.64133C2.71169 7.79724 2.44437 9.08002 2.50696 10.3682C2.56955 11.6563 2.95998 12.9071 3.64126 14.0021C4.32254 15.0971 5.2721 16.0001 6.4 16.6254C7.89791 17.4338 9.63217 17.6904 11.3 17.3504ZM9.21875 7.50042H10.7813V6.25042H9.21875V7.50042ZM10.7813 8.75042V13.7504H9.21875V8.75042H10.7813Z" fill="white"/>
  </symbol>

  <symbol id="icon_1" viewBox="0 0 24 24">
    <path d="M20.7075 19.2925C20.8005 19.3854 20.8742 19.4957 20.9246 19.6171C20.9749 19.7385 21.0008 19.8686 21.0008 20C21.0008 20.1314 20.9749 20.2615 20.9246 20.3829C20.8742 20.5043 20.8005 20.6146 20.7075 20.7075C20.5725 20.8413 17.3525 24 12 24C9.08 24 6.23375 22.8625 3.715 20.6987L1.7075 22.7075C1.56764 22.8475 1.38939 22.9429 1.19531 22.9815C1.00122 23.0202 0.800033 23.0004 0.61721 22.9246C0.434387 22.8489 0.278151 22.7206 0.16828 22.556C0.0584092 22.3914 -0.000155428 22.1979 3.09801e-07 22V16C3.09801e-07 15.7348 0.105357 15.4804 0.292894 15.2929C0.48043 15.1054 0.734784 15 1 15H7C7.1979 14.9998 7.39139 15.0584 7.55598 15.1683C7.72058 15.2782 7.84887 15.4344 7.92462 15.6172C8.00038 15.8 8.02018 16.0012 7.98153 16.1953C7.94288 16.3894 7.84751 16.5676 7.7075 16.7075L5.135 19.28C6.76 20.6438 9.10375 22 12 22C16.5338 22 19.2662 19.32 19.2925 19.2925C19.3854 19.1995 19.4957 19.1258 19.6171 19.0754C19.7385 19.0251 19.8686 18.9992 20 18.9992C20.1314 18.9992 20.2615 19.0251 20.3829 19.0754C20.5043 19.1258 20.6146 19.1995 20.7075 19.2925ZM23.3825 1.07625C23.1998 1.00045 22.9987 0.98054 22.8047 1.01903C22.6107 1.05753 22.4324 1.15269 22.2925 1.2925L20.285 3.30125C17.7663 1.1375 14.92 0 12 0C6.6475 0 3.4275 3.15875 3.2925 3.2925C3.10486 3.48014 2.99944 3.73464 2.99944 4C2.99944 4.26536 3.10486 4.51986 3.2925 4.7075C3.48014 4.89514 3.73464 5.00056 4 5.00056C4.26536 5.00056 4.51986 4.89514 4.7075 4.7075C4.73375 4.68 7.46625 2 12 2C14.8962 2 17.24 3.35625 18.865 4.72L16.2925 7.2925C16.1525 7.43235 16.0571 7.61061 16.0185 7.80469C15.9798 7.99878 15.9996 8.19997 16.0754 8.38279C16.1511 8.56561 16.2794 8.72185 16.444 8.83172C16.6086 8.94159 16.8021 9.00016 17 9H23C23.2652 9 23.5196 8.89464 23.7071 8.70711C23.8946 8.51957 24 8.26522 24 8V2C24 1.80222 23.9413 1.60889 23.8314 1.44447C23.7214 1.28004 23.5652 1.1519 23.3825 1.07625Z"/>
  </symbol>

  <symbol id="icon_2" viewBox="0 0 28 28">
    <path d="M19.3333 24.6667V27.3334H3.33332C1.86666 27.3334 0.666656 26.1334 0.666656 24.6667V7.33341H3.33332V24.6667H19.3333ZM24.6667 0.666748H8.66666C7.19999 0.666748 5.99999 1.86675 5.99999 3.33341V19.3334C5.99999 20.8001 7.19999 22.0001 8.66666 22.0001H24.6667C26.1333 22.0001 27.3333 20.8001 27.3333 19.3334V3.33341C27.3333 1.86675 26.1333 0.666748 24.6667 0.666748ZM18 16.6667H15.3333V14.0001H18V16.6667ZM20.4 9.73341C20 10.2667 19.4667 10.6667 18.9333 10.9334C18.6667 11.2001 18.4 11.3334 18.2667 11.6001C18 11.8667 18 12.2667 18 12.6667H15.3333C15.3333 12.0001 15.4667 11.4667 15.7333 11.0667C16 10.6667 16.4 10.2667 17.0667 9.86675C17.4667 9.60008 17.7333 9.33341 17.8667 9.06675C18.1333 8.80008 18.1333 8.40008 18.1333 8.00008C18.1333 7.60008 18 7.20008 17.7333 6.93341C17.4667 6.66675 17.2 6.53341 16.6667 6.53341C16.2667 6.53341 16 6.66675 15.7333 6.80008C15.4667 7.06675 15.3333 7.33341 15.3333 7.73341H12.8C12.8 6.66675 13.0667 5.86675 13.8667 5.33341C14.8 4.93341 15.7333 4.66675 16.9333 4.66675C18.1333 4.66675 19.2 4.93341 19.8667 5.60008C20.5333 6.26675 20.9333 7.06675 20.9333 8.00008C20.9333 8.66675 20.6667 9.20008 20.4 9.73341Z"/>
  </symbol>

  <symbol id="icon_3" viewBox="0 0 22 26">
    <path fill-rule="evenodd" clip-rule="evenodd" d="M14.0001 0.333333C14.0001 0.244928 13.965 0.160143 13.9024 0.0976311C13.8399 0.035119 13.7552 0 13.6667 0H4.33341C3.36095 0 2.42832 0.386309 1.74069 1.07394C1.05306 1.76158 0.666748 2.69421 0.666748 3.66667V22.3333C0.666748 23.3058 1.05306 24.2384 1.74069 24.9261C2.42832 25.6137 3.36095 26 4.33341 26H17.6667C18.6392 26 19.5718 25.6137 20.2595 24.9261C20.9471 24.2384 21.3334 23.3058 21.3334 22.3333V9.196C21.3334 9.1076 21.2983 9.02281 21.2358 8.9603C21.1733 8.89779 21.0885 8.86267 21.0001 8.86267H15.0001C14.7349 8.86267 14.4805 8.75731 14.293 8.56977C14.1054 8.38224 14.0001 8.12788 14.0001 7.86267V0.333333ZM15.0001 13.3333C15.2653 13.3333 15.5197 13.4387 15.7072 13.6262C15.8947 13.8138 16.0001 14.0681 16.0001 14.3333C16.0001 14.5985 15.8947 14.8529 15.7072 15.0404C15.5197 15.228 15.2653 15.3333 15.0001 15.3333H7.00008C6.73486 15.3333 6.48051 15.228 6.29297 15.0404C6.10544 14.8529 6.00008 14.5985 6.00008 14.3333C6.00008 14.0681 6.10544 13.8138 6.29297 13.6262C6.48051 13.4387 6.73486 13.3333 7.00008 13.3333H15.0001ZM15.0001 18.6667C15.2653 18.6667 15.5197 18.772 15.7072 18.9596C15.8947 19.1471 16.0001 19.4015 16.0001 19.6667C16.0001 19.9319 15.8947 20.1862 15.7072 20.3738C15.5197 20.5613 15.2653 20.6667 15.0001 20.6667H7.00008C6.73486 20.6667 6.48051 20.5613 6.29297 20.3738C6.10544 20.1862 6.00008 19.9319 6.00008 19.6667C6.00008 19.4015 6.10544 19.1471 6.29297 18.9596C6.48051 18.772 6.73486 18.6667 7.00008 18.6667H15.0001Z"/>
  </symbol>

  <symbol id="icon_4" viewBox="0 0 28 28">
    <path d="M24.6667 6.00008H23.3333V16.6667C23.3333 17.4001 22.7333 18.0001 22 18.0001H5.99999V19.3334C5.99999 20.8001 7.19999 22.0001 8.66666 22.0001H22L27.3333 27.3334V8.66675C27.3333 7.20008 26.1333 6.00008 24.6667 6.00008ZM20.6667 12.6667V3.33341C20.6667 1.86675 19.4667 0.666748 18 0.666748H3.33332C1.86666 0.666748 0.666656 1.86675 0.666656 3.33341V20.6667L5.99999 15.3334H18C19.4667 15.3334 20.6667 14.1334 20.6667 12.6667Z"/>
  </symbol>

  <symbol id="icon_5" viewBox="0 0 29 29">
    <path d="M14.4 0C10.5809 0 6.91819 1.51714 4.21766 4.21766C1.51714 6.91819 0 10.5809 0 14.4C0 18.2191 1.51714 21.8818 4.21766 24.5823C6.91819 27.2829 10.5809 28.8 14.4 28.8C18.2191 28.8 21.8818 27.2829 24.5823 24.5823C27.2829 21.8818 28.8 18.2191 28.8 14.4C28.8 10.5809 27.2829 6.91819 24.5823 4.21766C21.8818 1.51714 18.2191 0 14.4 0ZM1.776 15.488H5.792C5.856 16.944 6.0592 18.3904 6.4 19.808H2.944C2.29953 18.4494 1.90393 16.9862 1.776 15.488ZM15.488 6.848V1.904C17.0299 2.48996 18.2969 3.6314 19.04 5.104C19.368 5.6592 19.6576 6.2368 19.904 6.832L15.488 6.848ZM20.64 9.008C21.0112 10.4208 21.232 11.8688 21.296 13.328H15.488V9.008H20.64ZM13.312 1.904V6.848H8.896C9.14282 6.25231 9.43154 5.67487 9.76 5.12C10.4999 3.64136 11.7673 2.49386 13.312 1.904ZM13.312 9.008V13.328H7.52C7.584 11.8688 7.8048 10.4208 8.176 9.008H13.312ZM5.792 13.312H1.776C1.90393 11.8138 2.29953 10.3506 2.944 8.992H6.4C6.05855 10.409 5.85493 11.8558 5.792 13.312ZM7.52 15.488H13.312V19.808H8.176C7.80486 18.3953 7.58496 16.9472 7.52 15.488ZM13.328 21.888V26.832C11.7861 26.246 10.5191 25.1046 9.776 23.632C9.44754 23.0771 9.15882 22.4997 8.912 21.904L13.328 21.888ZM15.488 26.832V21.968H19.904C19.6572 22.5637 19.3685 23.1411 19.04 23.696C18.2969 25.1686 17.0299 26.31 15.488 26.896V26.832ZM15.488 19.728V15.408H21.28C21.215 16.8672 20.9951 18.3153 20.624 19.728H15.488ZM23.024 15.408H27.04C26.9121 16.9062 26.5165 18.3694 25.872 19.728H22.4C22.736 18.336 22.9392 16.9168 23.008 15.488L23.024 15.408ZM23.024 13.248C22.9507 11.8181 22.7418 10.3984 22.4 9.008H25.856C26.5008 10.368 26.896 11.8304 27.024 13.328L23.024 13.248ZM24.624 6.848H21.76C21.2418 5.39248 20.4907 4.03076 19.536 2.816C21.527 3.70973 23.2564 5.09768 24.56 6.848H24.624ZM9.264 2.816C8.30931 4.03076 7.5582 5.39248 7.04 6.848H4.24C5.54355 5.09768 7.27299 3.70973 9.264 2.816ZM4.224 22.016H7.04C7.5582 23.4715 8.30931 24.8332 9.264 26.048C7.26748 25.1408 5.53751 23.7359 4.24 21.968L4.224 22.016ZM19.52 26.048C20.4747 24.8332 21.2258 23.4715 21.744 22.016H24.56C23.2485 23.7429 21.5197 25.1082 19.536 25.984L19.52 26.048Z"/>
  </symbol>
</svg>