<svg xmlns="http://www.w3.org/2000/svg" xmlns:xlink="http://www.w3.org/1999/xlink">
  <symbol id="globe" viewBox="0 0 18 18" fill="none">
    <path d="M1.5 9C1.5 13.1422 4.85775 16.5 9 16.5C13.1422 16.5 16.5 13.1422 16.5 9C16.5 4.85775 13.1422 1.5 9 1.5C4.85775 1.5 1.5 4.85775 1.5 9Z" stroke="white" stroke-width="1.125" stroke-linecap="round" stroke-linejoin="round"/>
    <path d="M9.75 1.53711C9.75 1.53711 12 4.49961 12 8.99961C12 13.4996 9.75 16.4621 9.75 16.4621M8.25 16.4621C8.25 16.4621 6 13.4996 6 8.99961C6 4.49961 8.25 1.53711 8.25 1.53711M1.9725 11.6246H16.0275M1.9725 6.37461H16.0275" stroke="white" stroke-width="1.125" stroke-linecap="round" stroke-linejoin="round"/>
  </symbol>
  
  <symbol id="wallet" viewBox="0 0 16 16" fill="none">
    <path d="M3.5 6.5H6.5" stroke="white" stroke-linecap="round" stroke-linejoin="round"/>
    <path d="M14.6248 7.25H12.6733C11.3345 7.25 10.25 8.25725 10.25 9.5C10.25 10.7427 11.3352 11.75 12.6725 11.75H14.6248C14.6878 11.75 14.7185 11.75 14.7448 11.7485C15.1498 11.7237 15.4722 11.4245 15.4985 11.0488C15.5 11.0248 15.5 10.9955 15.5 10.9377V8.06225C15.5 8.0045 15.5 7.97525 15.4985 7.95125C15.4715 7.5755 15.1498 7.27625 14.7448 7.2515C14.7185 7.25 14.6878 7.25 14.6248 7.25Z" stroke="white"/>
    <path d="M14.7238 7.25C14.6653 5.846 14.4778 4.985 13.871 4.379C12.9928 3.5 11.5783 3.5 8.75 3.5H6.5C3.67175 3.5 2.25725 3.5 1.379 4.379C0.5 5.25725 0.5 6.67175 0.5 9.5C0.5 12.3282 0.5 13.7427 1.379 14.621C2.25725 15.5 3.67175 15.5 6.5 15.5H8.75C11.5783 15.5 12.9928 15.5 13.871 14.621C14.4778 14.015 14.666 13.154 14.7238 11.75" stroke="white"/>
    <path d="M3.5 3.50039L6.30125 1.64264C6.6952 1.3864 7.15505 1.25 7.625 1.25C8.09495 1.25 8.5548 1.3864 8.94875 1.64264L11.75 3.50039" stroke="white" stroke-linecap="round"/>
    <path d="M12.4932 9.5H12.5014" stroke="white" stroke-linecap="round" stroke-linejoin="round"/>
  </symbol>

  <symbol id="coin" viewBox="0 0 20 20">
    <path fill-rule="evenodd" clip-rule="evenodd" d="M10.71 1.28917C12.6991 1.48808 14.5544 2.38167 15.95 3.81292C17.4704 5.35742 18.3693 7.40737 18.4753 9.57204C18.5814 11.7367 17.8871 13.8647 16.525 15.5504C15.2722 17.1077 13.5141 18.1776 11.5553 18.5748C9.59653 18.9721 7.5605 18.6716 5.8 17.7254C4.03572 16.7588 2.65841 15.2137 1.9 13.3504C1.1382 11.4775 1.0368 9.4011 1.6125 7.46292C2.18697 5.53228 3.40994 3.85897 5.075 2.72542C6.72606 1.59906 8.72123 1.09053 10.71 1.28917ZM11.3 17.3504C12.9785 17.01 14.4859 16.095 15.5625 14.7629C16.7283 13.3141 17.3214 11.4876 17.2292 9.6303C17.137 7.77299 16.366 6.0142 15.0625 4.68792C13.8686 3.46918 12.2843 2.70882 10.5866 2.53974C8.88895 2.37065 7.18584 2.80361 5.775 3.76292C4.71305 4.49466 3.8555 5.48542 3.28359 6.64133C2.71169 7.79724 2.44437 9.08002 2.50696 10.3682C2.56955 11.6563 2.95998 12.9071 3.64126 14.0021C4.32254 15.0971 5.2721 16.0001 6.4 16.6254C7.89791 17.4338 9.63217 17.6904 11.3 17.3504ZM9.21875 7.50042H10.7813V6.25042H9.21875V7.50042ZM10.7813 8.75042V13.7504H9.21875V8.75042H10.7813Z" fill="white"/>
  </symbol>
</svg>